<?xml version="1.0" standalone="no"?>
<!DOCTYPE svg PUBLIC "-//W3C//DTD SVG 1.1//EN" "http://www.w3.org/Graphics/SVG/1.1/DTD/svg11.dtd" >
<!--
2013-9-30: Created.
-->
<svg>
<metadata>
Created by iconfont
</metadata>
<defs>

<font id="iconfont" horiz-adv-x="1024" >
  <font-face
    font-family="iconfont"
    font-weight="500"
    font-stretch="normal"
    units-per-em="1024"
    ascent="896"
    descent="-128"
  />
    <missing-glyph />
    
    <glyph glyph-name="shouji" unicode="&#58896;" d="M526.83794 756.906218c-243.016803 0-440.021665-197.004863-440.021665-440.021665s197.004863-440.021665 440.021665-440.021665 440.021665 197.004863 440.021665 440.021665S769.854742 756.906218 526.83794 756.906218zM526.83794-74.915855c-216.385259 0-391.800407 175.415149-391.800407 391.800407s175.415149 391.800407 391.800407 391.800407 391.800407-175.415149 391.800407-391.800407S743.223199-74.915855 526.83794-74.915855zM714.765053 98.094524c0-10.220782-2.043542-19.723204-6.131651-28.513404-4.087085-8.786107-9.707083-16.554024-16.863063-23.296589-7.15291-6.746658-15.531741-12.060687-25.13547-15.942087-9.606799-3.882424-19.928888-5.824659-30.964222-5.824659L418.005232 24.517785c-11.035334 0-21.357424 1.942235-30.964222 5.824659-9.603729 3.882424-17.98256 9.196453-25.139563 15.942087-7.15291 6.742565-12.771885 14.510482-16.859993 23.296589-4.086062 8.7902-6.130627 18.292622-6.130627 28.513404L338.910826 521.75864c0 10.218736 2.043542 19.824511 6.130627 28.816303 4.088108 8.994861 9.708106 16.863063 16.859993 23.606651 7.15598 6.745634 15.535835 12.059664 25.139563 15.942087 9.606799 3.882424 19.928888 5.825682 30.964222 5.825682l217.665415 0c11.035334 0 21.357424-1.943258 30.964222-5.825682 9.603729-3.882424 17.98256-9.196453 25.13547-15.942087 7.15598-6.743588 12.775978-14.611789 16.863063-23.606651 4.087085-8.991792 6.131651-18.597567 6.131651-28.816303L714.765053 98.094524 714.765053 98.094524zM665.100934 492.32733 387.961986 492.32733l0-364.189559 277.138948 0L665.100934 492.32733 665.100934 492.32733zM526.530948 110.968739c-8.584516 0-16.043395-3.064802-22.379707-9.196453-6.336312-6.130627-9.502421-13.693884-9.502421-22.685675 0-8.584516 3.166109-16.042371 9.502421-22.378683 6.336312-6.336312 13.795191-9.505491 22.379707-9.505491 8.993838 0 16.554024 3.169179 22.687722 9.505491 6.131651 6.336312 9.196453 13.794168 9.196453 22.378683 0 8.991792-3.064802 16.555048-9.196453 22.685675C543.084972 107.903937 535.524786 110.968739 526.530948 110.968739L526.530948 110.968739zM575.581084 544.443291c0 3.270487-1.02126 5.824659-3.064802 7.66354-2.043542 1.841951-4.291746 2.759857-6.742565 2.759857L487.903186 554.866688c-2.043542 0-4.188392-0.917906-6.436596-2.759857-2.248204-1.838881-3.371794-4.393054-3.371794-7.66354 0-3.270487 1.022283-5.824659 3.064802-7.66354 2.043542-1.838881 4.29277-2.759857 6.743588-2.759857l77.869508 0c2.450818 0 4.699022 0.920976 6.742565 2.759857C574.559824 538.618633 575.581084 541.172805 575.581084 544.443291L575.581084 544.443291zM575.581084 544.443291"  horiz-adv-x="1024" />

    
    <glyph glyph-name="108" unicode="&#58976;" d="M512 896C229.414893 896 0.255872 666.84098 0.255872 384.255872s229.15902-511.744128 511.744128-511.744128 511.744128 229.15902 511.744128 511.744128S794.585107 896 512 896zM600.531734 107.606997c7.471464-7.573813 7.471464-19.855672 0-27.327136-3.684558-3.786907-8.597301-5.629185-13.407696-5.629185-4.912744 0-9.723138 1.842279-13.407696 5.629185L288.674863 370.643478c-7.471464 7.573813-7.471464 19.855672 0 27.327136l284.93913 290.363618c7.471464 7.573813 19.446277 7.573813 26.815392 0 7.471464-7.573813 7.471464-19.855672 0-27.327136L329.0003 384.358221 600.531734 107.606997z"  horiz-adv-x="1024" />

    
    <glyph glyph-name="fanhui-copy-copy" unicode="&#58882;" d="M509.693-60.82c248.521 0 450 201.479 450 450s-201.479 450-450 450c-248.521 0-450-201.481-450-450 0-248.521 201.481-450 450-450zM429.892 547.64c-11.7 11.7-11.7 30.72 0 42.42 5.881 5.879 13.561 8.759 21.241 8.759s15.36-2.94 21.239-8.759l179.519-179.639c11.7-11.7 11.7-30.72 0-42.42l-180.72-180.78c-11.7-11.7-30.72-11.7-42.42 0s-11.7 30.72 0 42.42l159.479 159.6-158.34 158.4z"  horiz-adv-x="1024" />

    
    <glyph glyph-name="gouwuche1" unicode="&#58983;" d="M279.595906 110.817154c-30.261211 0-54.771441-24.556279-54.771441-54.873772 0-30.320563 24.512277-54.875818 54.771441-54.875818 30.263258 0 54.773488 24.556279 54.773488 54.875818 0.001023 30.316469-24.509207 54.873772-54.773488 54.873772z m383.41032 0c-30.263258 0-54.771441-24.556279-54.771441-54.873772 0-30.320563 24.509207-54.875818 54.771441-54.875818s54.773488 24.556279 54.773487 54.875818c0 30.316469-24.511253 54.873772-54.773487 54.873772zM929.098583 769.321856h-81.45108c-39.954991 0-75.03802-31.280424-79.886445-71.201646l-16.365736-94.658893H144.886855c-43.548842 0-78.852906-31.267121-78.852906-69.841671l105.137549-325.926094c16.685008-48.654117 16.839527-63.896262 46.094827-68.251454 2.38942-0.7552 5.133927-1.188058 7.980765-1.188058h4.903684c5.749958-0.295735 12.314467-0.402159 19.869536-0.40216l10.393721 0.40216h409.682683c39.46278 0 74.163093 31.277354 78.982866 71.201645l46.449915 327.606363 26.427906 153.100933c1.641383 13.363356 13.801331 24.281009 25.686009 24.28101h81.45108c15.115256 0 27.38572 12.294001 27.38572 27.439956 0.001023 15.144932-12.268418 27.436886-27.383673 27.436885v0.001024h0.002046zM741.387387 545.594375l-46.63718-329.006246c-1.534959-12.732999-13.036921-23.460318-24.650423-23.460318H312.743864c-48.14451 4.304026-78.310553-14.519692-95.68527 41.468461l-87.84265 276.076756c-16.043395 60.216453 50.974975 46.226834 94.52177 46.226834h519.602142l-1.953492-11.30651 0.001023 0.001023z"  horiz-adv-x="1024" />

    
    <glyph glyph-name="SDneicunqia" unicode="&#59077;" d="M194.397 666.241L393.235 832.556h438.017c31.561 0 57.372-25.809 57.372-57.372v-780.293c0-31.561-25.811-57.37-57.372-57.37H194.397c-31.546 0-57.372 25.809-57.372 57.37V563.786c0 53.766 14.611 66.679 57.372 102.455z m97.487-487.218v-46.141c0-24.464 16.214-36.704 48.577-36.704 31.897 0 47.886 13.441 47.886 40.325v28.741c0 19.529-7.545 31.497-22.653 35.871 14.739 5.288 22.108 15.702 22.108 31.162v26.579c0 11.888-4.694 20.538-14.178 26.05-9.453 5.478-20.492 8.203-33.164 8.203-31.674 0-47.471-11.407-47.471-34.253V223h37.618v35.584c0 3.86 2.676 5.799 7.962 5.799 5.112 0 7.691-1.939 7.691-5.799v-34.27c0-7.547-6.072-11.31-18.232-11.31v-21.885c7.048 0 11.838-0.914 14.37-2.756 2.581-1.842 3.862-5.302 3.862-10.462v-44.746c0-4.79-2.579-7.177-7.691-7.177-5.158 0-7.673 2.387-7.673 7.177v45.868h-39.012z m200.474-81.099v24.817h-51.925l47.744 91.448c2.755 5.335 4.182 12.065 4.182 20.267 0 20.843-3.22 35.871-9.661 44.971-6.457 9.131-19.529 13.682-39.332 13.682-31.994 0-48.014-12.432-48.014-37.329v-33.756h38.033v33.195c0 5.383 2.981 8.106 8.941 8.106 5.75 0 8.587-4.341 8.587-12.944 0-16.583-2.579-29.607-7.819-39.141l-47.742-87.667v-25.65h97.006v0.001z m150.518 0v95.774h-47.183v-29.638h8.747v-36.209c0-3.124-2.131-4.694-6.36-4.694-4.182 0-6.313 1.57-6.313 4.694V262.077c0 3.188 2.131 4.741 6.313 4.741 4.229 0 6.36-1.554 6.36-4.741V223h38.435v35.856c0 22.846-15.188 34.253-45.581 34.253-32.042 0-48.031-12.529-48.031-37.618v-126.246c0-11.52 3.781-19.882 11.376-25.186 7.594-5.255 16.486-7.881 26.674-7.881 10.398 0 20.3 4.149 29.64 12.399l5.575-10.654h20.348v0.001z m8.795 0h53.558c11.504 0 21.404 3.188 29.735 9.548 8.283 6.297 12.481 15.877 12.481 28.631v37.521c0 14.275-8.747 23.583-26.195 27.908 16.583 5.56 24.817 15.141 24.817 28.726v26.836c0 11.983-4.374 20.683-13.218 26.113-8.795 5.432-19.209 8.155-31.128 8.155h-50.05v-193.438z m54.344 125.477v32.875c0 6.777-3.973 10.126-11.84 10.126v-53.269c7.866-0.001 11.84 3.395 11.84 10.268z m0-90.391v48.945c0 6.777-3.973 10.14-11.84 10.14v-69.355c7.866 0.001 11.84 3.413 11.84 10.27z m17.047 668.161v-226.522h80.297V801.171h-80.297z m-447.39-430.12c-20.507 0-37.282-16.773-37.282-37.264v-272.424c0-20.491 16.775-37.265 37.282-37.265h478.854c20.507 0 37.282 16.775 37.282 37.265V333.787c0 20.491-16.775 37.264-37.282 37.264H275.672z m131.901 430.12v-226.522h80.281V801.171h-80.281z m104.922 0v-226.522h80.283V801.171h-80.283z m105.659 0v-226.522h80.283V801.171h-80.283z"  horiz-adv-x="1024" />

    
    <glyph glyph-name="weixiu" unicode="&#58927;" d="M279.462957 431.905391c-17.808696 0-35.617391 6.856348-49.196522 20.569044L36.151652 649.037913a23.596522 23.596522 0 0 0 0 33.257739 23.017739 23.017739 0 0 0 32.946087 0L263.123478 485.732174a23.151304 23.151304 0 0 1 32.901565 0L405.147826 596.23513a23.81913 23.81913 0 0 1 0 33.25774l-193.847652 196.340869a23.596522 23.596522 0 0 0 0 33.257739 23.017739 23.017739 0 0 0 32.901565 0l193.669565-196.251826c13.178435-13.222957 20.346435-30.942609 20.346435-49.908869 0-18.966261-7.168-36.59687-20.301913-49.953392L328.793043 452.474435a69.097739 69.097739 0 0 0-49.330086-20.569044zM889.499826-127.554783c-34.237217 0-68.474435 13.267478-94.608696 39.66887L512 198.611478a23.596522 23.596522 0 0 0 0 33.257739 23.151304 23.151304 0 0 0 32.857043 0l282.891131-286.497391c34.148174-34.504348 89.488696-34.504348 123.636869 0a89.488696 89.488696 0 0 1 0 125.106087l-282.980173 286.541913a23.596522 23.596522 0 0 0 0 33.257739 23.151304 23.151304 0 0 0 32.857043 0l282.89113-286.497391a136.904348 136.904348 0 0 0 0-191.666087 132.808348 132.808348 0 0 0-94.653217-39.624348zM366.413913 152.130783c-94.697739 0-187.970783 37.487304-258.982956 109.345391C0.890435 369.485913-29.696 535.641043 31.387826 675.216696a23.017739 23.017739 0 0 0 30.586435 12.020869 23.641043 23.641043 0 0 0 11.887304-30.98713c-53.426087-121.989565-26.713043-267.219478 66.337392-361.382957 100.441043-101.732174 251.948522-124.66087 377.277217-57.165913a23.151304 23.151304 0 0 0 31.387826-9.705739 23.596522 23.596522 0 0 0-9.572174-31.788522 361.961739 361.961739 0 0 0-172.833391-44.076521z m337.697391 280.798608a23.507478 23.507478 0 0 0-22.839652 28.093218 327.323826 327.323826 0 0 1-87.752348 292.953043C500.335304 848.183652 356.975304 875.163826 236.766609 821.114435a23.017739 23.017739 0 0 0-30.586435 12.020869 23.462957 23.462957 0 0 0 11.842783 30.942609c137.705739 61.840696 301.857391 30.942609 408.486956-77.022609a374.472348 374.472348 0 0 0 100.441044-335.337739 23.507478 23.507478 0 0 0-22.839653-18.832695z"  horiz-adv-x="1024" />

    
    <glyph glyph-name="gouwuche" unicode="&#58880;" d="M347.136 112.63999999999999q19.456 0 36.864-7.168t30.72-19.968 20.48-30.208 7.168-36.864-7.168-36.864-20.48-30.208-30.72-20.48-36.864-7.68q-20.48 0-37.376 7.68t-30.208 20.48-20.48 30.208-7.168 36.864 7.168 36.864 20.48 30.208 30.208 19.968 37.376 7.168zM773.12 110.59199999999998q19.456 0 37.376-7.168t30.72-19.968 20.48-30.208 7.68-36.864-7.68-36.864-20.48-30.208-30.72-20.48-37.376-7.68-36.864 7.68-30.208 20.48-20.48 30.208-7.68 36.864 7.68 36.864 20.48 30.208 30.208 19.968 36.864 7.168zM945.152 692.2239999999999q28.672 0 44.544-7.68t22.528-18.944 6.144-24.064-3.584-22.016-12.8-37.888-22.016-62.976-24.064-68.096-17.92-53.248q-13.312-40.96-33.792-56.832t-50.176-15.872l-34.816 0-66.56 0-87.04 0-95.232 0-253.952 0 15.36-92.16 516.096 0q49.152 0 49.152-41.984 0-20.48-9.728-35.328t-38.4-14.848l-49.152 0-95.232 0-117.76 0-119.808 0-98.304 0-56.32 0q-20.48 0-34.304 9.216t-23.04 24.064-14.848 32.256-8.704 32.768q-1.024 6.144-5.632 29.696t-11.264 58.88-14.848 78.848-16.384 87.552q-19.456 103.424-44.032 230.4l-76.8 0q-15.36 0-25.6 7.68t-16.896 18.432-9.216 23.04-2.56 22.528q0 20.48 13.824 33.792t37.376 13.312l22.528 0 20.48 0 25.6 0 34.816 0q20.48 0 32.768-6.144t19.456-15.36 10.24-19.456 5.12-17.408q2.048-8.192 4.096-23.04t4.096-30.208q3.072-18.432 6.144-38.912l700.416 0z"  horiz-adv-x="1024" />

    
    <glyph glyph-name="tian" unicode="&#58899;" d="M511.999363-127.936c-282.303647 0-511.99936 229.631713-511.99936 511.99936 0 282.239647 229.695713 511.87136 511.99936 511.87136a506.879366 506.879366 0 0 0 228.863714-53.951932l-28.607964-57.279929a443.327446 443.327446 0 0 1-200.25575 47.167941c-246.975691 0-447.99944-200.959749-447.99944-447.87144 0-246.975691 200.959749-447.99944 447.99944-447.99944s446.975441 233.727708 446.975441 480.767399c0 16.447979 0 16.447979-107.007866 11.391986l119.231851 228.863714s20.031975 2.623997 44.031945-151.103811 8.767989-102.975871 8.767989-121.855848c0-282.367647-229.759713-511.99936-511.99936-511.99936zM480.703402 94.015722l-56.767929 29.631963 196.351755 376.959529v36.479955H376.319532v63.99992h307.967616v-116.159855z"  horiz-adv-x="1028" />

    
    <glyph glyph-name="shopping-px-glyph-" unicode="&#58958;" d="M992.969697 709.818182H816.09697c10.860606 18.618182 17.066667 38.787879 17.066666 62.060606 0 68.266667-57.406061 124.121212-127.224242 124.121212-100.848485 0-159.806061-74.472727-192.387879-133.430303-32.581818 60.509091-91.539394 133.430303-192.387879 133.430303-69.818182 0-127.224242-55.854545-127.224242-124.121212 0-23.272727 6.206061-43.442424 17.066667-62.060606H32.581818c-17.066667 0-32.581818-13.963636-32.581818-31.030303v-124.121212c0-17.066667 13.963636-31.030303 32.581818-31.030303H992.969697c17.066667 0 32.581818 13.963636 32.581818 31.030303v124.121212c0 17.066667-13.963636 31.030303-32.581818 31.030303z m-671.806061-4.654546c-35.684848 0-63.612121 29.478788-63.612121 63.612122 0 35.684848 29.478788 63.612121 63.612121 63.612121 79.127273 0 125.672727-77.575758 145.842425-127.224243h-145.842425z m384.775758 0h-147.393939c21.721212 49.648485 66.715152 127.224242 147.393939 127.224243 35.684848 0 63.612121-29.478788 63.612121-63.612121 0-35.684848-29.478788-63.612121-63.612121-63.612122z m-130.327273-833.163636v574.060606H947.975758v-541.478788c0-17.066667-15.515152-32.581818-34.133334-32.581818H575.612121z m-108.60606 0h-338.230303c-18.618182 0-34.133333 13.963636-34.133334 32.581818v541.478788h372.363637v-574.060606z"  horiz-adv-x="1025" />

    
    <glyph glyph-name="fanhui1" unicode="&#58885;" d="M512 12.299999999999955c-204.4 0.3-369.9 166.3-369.5 370.7 0.3 204.4 166.3 369.9 370.7 369.5 204.4-0.3 369.9-166.3 369.5-370.69999999-0.2-148.5-89.3-282.6-226.1-340.4-45.7-19.3-94.9-29.20000001-144.6-29.10000001z m0-75.8C759.1-63.5 959.5 136.89999999999998 959.5 384S759.1 831.5 512 831.5 64.5 631.1 64.5 384 264.9-63.5 512-63.5m-229.1 404l314.4 0.3-96.4-94.6c-15.8-15.3-16.20000001-40.4-0.89999999-56.2l0.89999999-0.9c16.3-15.8 42.1-15.8 58.4 0L720.8 347.70000000000005c1.8 1.3 3.4 2.60000001 5 4.1 1.7 1.6 3.2 3.40000001 4.5 5.3 5.3 6.9 8.20000001 15.4 8.2 24.1-0.1 14-7.4 26.89999999-19.3 34.1l-159.9 157c-16.3 15.8-42.1 15.8-58.4 0-15.7-15.2-16.20000001-40.4-0.9-56.1l0.9-0.9 95.6-93.89999999-313.6-0.30000001c-22.3 0-40.3-18.1-40.3-40.3-0.1-22.2 18-40.3 40.3-40.3m0 0z"  horiz-adv-x="1024" />

    
    <glyph glyph-name="fma" unicode="&#58883;" d="M511.999996 584.3475599999999l111.303859 0c24.589948 0 44.521339 19.932413 44.521339 44.521339 0 24.589948-19.932413 44.521339-44.521339 44.521339L489.738816 673.3902390000001c-73.765759 0-133.56504-59.799281-133.56504-133.56504l0-400.695119c0-24.589948 19.932413-44.521339 44.521339-44.521339 24.589948 0 44.521339 19.932413 44.521339 44.521339L445.216455 250.43496000000005c0 36.884411 29.898108 66.78252 66.78252 66.78252l111.303859 0c24.589948 0 44.521339 19.932413 44.521339 44.521339 0 24.589948-19.932413 44.521339-44.521339 44.521339L511.999996 406.260159c-36.884411 0-66.78252 29.89913-66.78252 66.78252l0 44.521339C445.217476 554.449451 475.115585 584.3475599999999 511.999996 584.3475599999999zM511.999996 896c-282.768572 0-512-229.230407-512-512s229.231428-512 512-512 512 229.230407 512 512S794.768568 896 511.999996 896zM511.999996-38.956300000000056c-233.592761 0-422.9563 189.363539-422.9563 422.9563S278.407235 806.9563 511.999996 806.9563s422.9563-189.36456 422.9563-422.9563S745.591735-38.956300000000056 511.999996-38.956300000000056z"  horiz-adv-x="1024" />

    
    <glyph glyph-name="yijiuhuanxin" unicode="&#58884;" d="M440.890647 483.563974l170.662447 0 0-220.438995-170.662447 0 0 220.438995ZM440.890647 508.452247L440.890647 504.89678l3.555467 0L611.553094 504.89678l0 3.555467c0 9.798869-7.971359 17.777338-17.777338 17.777338l-135.107771 0C448.862006 526.2295859999999 440.890647 518.251116 440.890647 508.452247zM440.890647 241.79217400000005l0-3.555467c0-9.798869 7.971359-17.777338 17.777338-17.777338l135.107771 0c9.80598 0 17.777338 7.978469 17.777338 17.777338L611.553094 241.79217400000005 444.446115 241.79217400000005 440.890647 241.79217400000005zM1007.532638 613.608759c-21.944347 126.27599-142.837358 246.415242-268.651136 266.972956-125.813778 20.557714-331.696688 20.557714-457.510467 0C155.550146 860.024 35.858882 739.884748 15.372277 613.608759c-20.479494-126.27599-20.479494-332.912659 0-459.195759 20.479494-126.27599 140.177868-246.415242 265.991647-266.972956 125.813778-20.557714 331.696688-20.557714 457.510467 0 125.813778 20.557714 246.706789 140.696966 268.651136 266.972956C1029.469874 280.688989 1029.469874 487.33277 1007.532638 613.608759zM222.727151 291.78915900000004c-7.203378 26.203796-11.128614 53.75156-11.128614 82.216634 0 143.128906 97.348704 263.851255 229.29211 299.697479l0 34.025826 95.265201-41.392754L440.890647 624.936479l0 26.630453c-120.032588-35.227573-207.959303-146.286161-207.959303-277.561138 0-24.56117 3.100368-48.404136 8.888669-71.194684L222.727151 291.78915900000004zM593.775756 547.562392c21.567467 0 39.110144-17.542677 39.110144-39.110144L632.8859 504.89678l0-24.17718 0-220.438995L632.8859 241.79217400000005l0-3.555467c0-21.567467-17.542677-39.110144-39.110144-39.110144l-135.107771 0c-21.567467 0-39.110144 17.542677-39.110144 39.110144L419.557841 241.79217400000005l0 18.488432 0 220.438995L419.557841 504.89678l0 3.555467c0 21.567467 17.542677 39.110144 39.110144 39.110144L593.775756 547.562392zM522.225525 63.378806000000054c-88.026268 0-167.562079 36.855978-224.12957 95.898073l-27.36288-15.793387-11.78282 103.201004 83.482381-61.80825-25.272264-14.591639c52.428926-52.784472 124.967577-85.572996 205.065152-85.572996 80.673561 0 153.702867 33.229401 206.224235 86.668079l18.993308-10.965062C690.804468 100.72543900000005 610.813557 63.378806000000054 522.225525 63.378806000000054zM767.339465 208.37077699999998l11.78282 103.201004 22.257227-12.84946c6.499395 24.034961 10.133083 49.229005 10.133083 75.283472 0 133.536254-90.977307 246.180581-214.188482 279.345983l0 22.0439c135.107771-33.677389 235.521288-156.00681 235.521288-301.389882 0-29.965481-4.344782-58.914099-12.301919-86.340976l30.278363-17.478679L767.339465 208.37077699999998z"  horiz-adv-x="1024" />

    
    <glyph glyph-name="huafeichongzhi" unicode="&#58906;" d="M425.716581 108.06062a286.652969 286.652969 0 0 0 7.27571 64.006245H151.464822V775.363229h472.308584V377.19938a268.11366 268.11366 0 0 0 59.093266 10.45102V805.466167C682.866672 855.246024 643.025284 896 594.283028 896H180.9552C132.212944 896 92.371557 855.246024 92.371557 805.466167v-784.251521c0-49.767356 39.841387-90.533833 88.583643-90.533833h306.717426a282.727586 282.727586 0 0 0-61.956045 177.379807zM269.538843 850.733083h236.160542v-30.215448H269.538843z m430.742028-506.624431c-127.59995 0-231.272565-105.685312-231.347573-235.948022s103.847632-236.273053 231.647602-236.160542c127.18741 0 230.935033 105.885331 231.035042 235.848011 0.20002 130.26271-103.535102 236.273053-231.347573 236.273054z m105.172762-331.494845a25.164955 25.164955 0 0 0-14.85145-4.20041h-62.981145v-18.326788c0-5.53804-2.25022-10.851059-6.76316-16.076568s-10.338509-7.500732-17.501707-6.86317c-7.163199 0-13.213789 1.63766-18.026759 5.000488s-7.500732 9.313409-8.088289 17.926749V8.413397h-61.143466a21.927139 21.927139 0 0 0-14.851449 5.000488 13.363804 13.363804 0 0 0-4.91298 12.388709 16.726632 16.726632 0 0 0 5.83807 13.313799 20.439494 20.439494 0 0 0 13.926359 5.000488h61.143466v32.190641h-61.143466c-5.938079 0-10.751049 1.837679-14.338899 5.525539a17.989255 17.989255 0 0 0-5.42553 12.901259q0 7.363218 5.83807 13.826349a18.114267 18.114267 0 0 0 13.926359 6.450629h61.143466l0.92509 19.251879c-10.751049 11.063579-20.689519 21.402088-29.702898 31.253049-7.775759 8.600839-15.001464 16.589119-21.602108 23.864829l-13.413809 13.001268a53.317702 53.317702 0 0 0-8.088289 15.151479c-2.350229 6.450629-1.250122 13.001269 3.58785 19.764428 5.425529 6.138099 11.98867 7.78826 19.764429 5.000488a55.967961 55.967961 0 0 0 18.839338-10.55103 171.179202 171.179202 0 0 1 12.588728-13.826349l18.951849-19.251878 24.264868-24.777418c10.238499 9.825959 19.464399 18.639319 27.852717 26.627598 7.163199 6.76316 14.438909 13.313799 21.614609 19.764429s12.288699 10.851059 15.26399 13.313799a26.127549 26.127549 0 0 0 18.026759 7.37572 19.501903 19.501903 0 0 0 16.176578-8.30081c7.775759-9.213399 4.81297-19.864438-9.01338-32.153138a224.784432 224.784432 0 0 1-16.176578-16.076568 1030.361783 1030.361783 0 0 0-21.614609-22.502196c-8.40082-9.213399-17.714228-18.75183-27.865219-28.465277v-17.501708h58.480706c8.40082 0 14.538919-1.95019 18.439299-5.938079a18.626817 18.626817 0 0 0 5.83807-13.313799 20.589509 20.589509 0 0 0-5.438031-14.263892c-3.58785-4.00039-9.625939-5.73806-18.026758-5.000488l-58.480706-0.92509-0.925091-31.253049h57.505611q25.202459 0 25.189958-19.351889c0.71257-6.038089-0.912589-10.551029-4.81297-13.313799z m0 0"  horiz-adv-x="1024" />

    
    <glyph glyph-name="renwu" unicode="&#58886;" d="M875.374 105.80100000000004h0.183a392.411 392.411 0 0 1-174.958 328.156 268.032 268.032 0 0 1 52.37 159.817c0 146.724-116.553 265.655-260.352 265.655-143.726 0-260.315-118.93-260.315-265.655 0-59.977 19.492-115.347 52.37-159.817A392.411 392.411 0 0 1 109.714 105.79999999999995h0.147v-124.343l-0.074-1.536c0-18.651 14.775-33.682 33.024-33.682a33.353 33.353 0 0 1 32.988 33.646l-0.073 1.572V115.89499999999998a324.498 324.498 0 0 0 156.196 268.873 255.963 255.963 0 0 1 160.695-56.65 255.963 255.963 0 0 1 160.695 56.613 324.462 324.462 0 0 0 156.233-268.726v-134.583c-0.036-0.476-0.11-0.988-0.11-1.5 0-18.651 14.775-33.682 33.024-33.682a33.353 33.353 0 0 1 32.988 33.646l-0.073 1.572V105.80100000000004zM492.617 400.64c-104.521 0-189.257 86.455-189.257 193.134s84.736 193.133 189.257 193.133 189.294-86.454 189.294-193.133-84.773-193.097-189.294-193.097z"  horiz-adv-x="1024" />

    
    <glyph glyph-name="fifteenday" unicode="&#58887;" d="M910.25 515.063c-47.063-12.187-93.75-24.375-141.563-36.75 35.813 67.687 71.25 134.438 106.5 201 120.563-139.313 157.5-383.438 14.813-576-149.25-201.563-426-247.875-631.5-114-210.562 137.25-273.563 410.25-152.625 622.875 126.375 221.813 377.438 278.813 560.813 212.438-5.063-16.875-10.313-33.75-15.188-50.063-16.688 4.313-32.625 9.188-48.937 12.75-44.25 9.938-89.063 12-134.25 6.937-77.625-8.812-147.563-36.75-208.875-85.125-83.812-66-136.5-151.688-153.563-257.063-21.75-134.438 13.875-253.125 106.125-353.25 64.125-69.75 144.188-112.313 237.938-126 133.5-19.688 251.063 16.688 349.875 108.75 68.25 63.75 109.125 142.875 124.313 235.312 6.75 40.688 6.75 81.188 0.188 121.875-3.938 24.375-8.438 48.562-12.75 72.938-0.563 0.75-0.938 1.688-1.313 3.375zM502.062 383.062c8.625 66.938 17.25 133.125 25.875 199.688 63.375 0 126.75 0 190.5 0 0-17.063 0-34.5 0-52.125-48.188 0-96.188 0-145.125 0-4.688-33-9.188-65.625-13.875-98.813 6.563 0.375 12.563 0.938 18.375 1.125 33.188 1.5 64.875-4.125 93.375-21.937 33.375-20.813 51.375-51.563 55.313-90.562 3.563-36-3.937-69.187-25.313-98.813-22.5-31.125-53.438-49.125-90.75-55.875-41.813-7.688-82.5-2.625-121.688 14.25-3.375 1.5-6.563 3.375-10.312 5.25 4.687 16.125 9.562 32.063 14.062 47.813 11.438-4.313 22.125-9.188 33.375-12.563 24.562-7.313 49.5-10.5 75-3.563 37.875 10.688 62.625 44.438 61.313 83.813-0.75 25.875-9.188 48-30.563 63.938-15.188 11.25-32.625 16.688-51 19.125-24.563 3.375-49.313 2.438-73.875-0.563-1.125 0-2.625 0-4.687-0.188zM346.437 168.562c-20.625 0-40.688 0-61.5 0 0 118.687 0 237 0 356.625-24.188-13.313-47.438-26.063-71.25-39.188-1.125 3.938-2.25 7.313-3.375 10.875-3.375 10.687-6.375 21.375-9.938 32.063-0.938 2.813-0.563 4.313 2.25 5.812 29.25 15.563 58.5 31.313 87.75 46.875 1.313 0.75 3 1.313 4.5 1.313 17.063 0.187 34.125 0 51.563 0 0-138 0-276 0-414.375z"  horiz-adv-x="1024" />

    
    <glyph glyph-name="lianxi" unicode="&#58935;" d="M847.214 756.5H176.742C115.023 756.5 65 709.11 65 650.606v-415.607c0-58.448 37.61-99.333 99.334-99.333h223.499L512 11.5l124.167 124.166h223.501c61.715 0 99.333 40.885 99.333 99.333V650.606C959 709.101 908.932 756.5 847.214 756.5zM280.218 403.433c-27.426 0-49.661 21.526-49.661 48.133 0 26.569 22.235 48.09 49.661 48.09 27.43 0 49.671-21.521 49.671-48.09-0.005-26.598-22.241-48.133-49.671-48.133z m231.782 0c-27.436 0-49.666 21.526-49.666 48.133 0 26.569 22.231 48.09 49.666 48.09 27.434 0 49.67-21.521 49.67-48.09 0-26.598-22.236-48.133-49.67-48.133z m231.771 0c-27.438 0-49.665 21.526-49.665 48.133 0 26.569 22.227 48.09 49.665 48.09 27.44 0 49.672-21.521 49.672-48.09 0.005-26.598-22.232-48.133-49.672-48.133z"  horiz-adv-x="1024" />

    
    <glyph glyph-name="xiaomi" unicode="&#58894;" d="M1524.736-128h-216.064a11.421538 11.421538 0 0 0-11.342769 11.500308V884.420923A11.460923 11.460923 0 0 0 1308.672 896h216.064a11.067077 11.067077 0 0 0 7.876923-3.387077 11.815385 11.815385 0 0 0 3.308308-8.192v-1000.920615a11.382154 11.382154 0 0 0-11.185231-11.500308z m-416.374154 11.460923z m-11.264-11.460923h-212.952615a11.382154 11.382154 0 0 0-11.264 11.539692V518.813538a160.059077 160.059077 0 0 1-158.050462 161.988924H250.092308a11.421538 11.421538 0 0 1-11.303385-11.539693v-785.762461a11.382154 11.382154 0 0 0-11.303385-11.500308H11.303385A11.382154 11.382154 0 0 0 0-116.539077V884.539077A11.421538 11.421538 0 0 0 11.303385 896h809.196307a291.446154 291.446154 0 0 0 287.862154-295.384615v-717.39077a11.382154 11.382154 0 0 0-11.264-11.224615zM444.534154 497.191385h216.103384a11.106462 11.106462 0 0 0 7.876924-3.387077 11.815385 11.815385 0 0 0 3.268923-8.192v-602.112a11.815385 11.815385 0 0 0-3.268923-8.152616 10.909538 10.909538 0 0 0-7.876924-3.347692h-216.103384a11.382154 11.382154 0 0 0-11.303385 11.500308V485.612308a11.460923 11.460923 0 0 0 11.303385 11.579077z"  horiz-adv-x="1536" />

    
    <glyph glyph-name="huidaodingbu" unicode="&#58984;" d="M547.113768 724.656193a40.409664 40.409664 0 0 1-20.496543 10.977549 40.824201 40.824201 0 0 1-31.443386 0 40.455724 40.455724 0 0 1-20.373717-10.977549L89.618644 339.444008a43.357481 43.357481 0 0 1 61.30539-61.305391l320.728678 320.728679V-86.60773a39.304232 39.304232 0 1 1 78.608465 0V598.867296l320.728678-320.728679a43.357481 43.357481 0 0 1 61.305391 61.320744zM982.607734 895.998081H39.306156A38.920402 38.920402 0 0 1 0.001923 856.693848a38.920402 38.920402 0 0 1 39.304233-39.304232H982.607734a38.920402 38.920402 0 0 1 39.304233 39.304232A38.920402 38.920402 0 0 1 982.607734 895.998081z m0 0"  horiz-adv-x="1024" />

    
    <glyph glyph-name="liwu" unicode="&#58888;" d="M941.312 421.184H80.512a48.512 48.512 0 0 0-48.128 48.64V678.912c0 26.752 21.696 48.64 48.128 48.64h863.232c26.432 0 48.064-21.888 48.064-48.64v-209.088c-2.368-26.752-24-48.64-50.496-48.64z m0 48.64v-24.32 24.32zM80.512 678.912v-209.088h863.232V678.912H80.512zM876.416-123.392H186.24c-14.4 0-24.064 9.664-24.064 24.32 0 14.528 9.6 24.32 24.064 24.32h692.48v496H145.408v-435.2c0-14.656-9.6-24.32-24-24.32-14.464 0-24.064 9.664-24.064 24.32V418.688c0 26.752 21.632 48.64 48.064 48.64h733.44c26.432 0 48-21.888 48-48.64v-496a50.176 50.176 0 0 0-50.432-46.144zM510.912-113.728c-14.4 0-24.064 9.728-24.064 24.32V693.504c0 14.592 9.6 24.32 24.064 24.32 14.4 0 24.064-9.728 24.064-24.32v-782.912c0-12.16-9.6-24.32-24.064-24.32zM520.512 669.184L325.76 853.952a23.68 23.68 0 0 0 0 34.048 23.04 23.04 0 0 0 33.664 0l161.088-153.152L664.832 888a23.04 23.04 0 0 0 33.664 0 23.68 23.68 0 0 0 0-34.048l-177.92-184.768z"  horiz-adv-x="1024" />

    
    <glyph glyph-name="arrow-right" unicode="&#58890;" d="M695.444864 387.587823l-364.26502799-364.265028c-20.07399-20.049007-20.07399-52.553369-1e-8-72.57739301 20.024024-20.049007 52.528386-20.049007 72.577393 1e-8L803.007737 349.971128c20.024024 20.024024 20.024024 52.528386 0 72.57739299-1.578929 1.578929-3.383306 2.83188-5.112534 4.16017902-0.300796 0.325779-0.52624299 0.701724-0.827039 1.02750299l-389.877663 389.877663c-19.57293 19.57293-51.300418 19.57293001-70.87314801 0s-19.57293001-51.300418 1e-8-70.873148L695.444864 387.587823z"  horiz-adv-x="1024" />

    
    <glyph glyph-name="fanhui" unicode="&#58961;" d="M802.13034 827.731156L733.861496 896 221.86966 384.008164l68.268844-68.285172 443.722992-443.722992 68.268844 68.268844L358.407348 384.008164 802.13034 827.731156z"  horiz-adv-x="1024" />

    
    <glyph glyph-name="shandian" unicode="&#59188;" d="M549.0176 538.88h232.2944L226.304-128l185.0368 469.6064H204.8L411.3408 896h400.128z"  horiz-adv-x="1024" />

    
    <glyph glyph-name="kefu" unicode="&#58920;" d="M55.359 342.597v-110.924a83.027 83.027 0 0 1 166.054 0V342.597a83.027 83.027 0 0 1-166.054 0z m763.102-211.553a137.853 137.853 0 0 0-43.534 100.63V342.596a138.378 138.378 0 0 0 137.41 138.268C898.138 681.929 730.507 840.649 525.846 840.649c-204.69 0-372.293-158.72-386.491-359.784a138.461 138.461 0 0 0 137.41-138.268v-110.924a138.378 138.378 0 0 0-276.757 0V342.597a138.378 138.378 0 0 0 83.304 126.865C91.892 706.477 286.728 896 525.846 896s433.954-189.523 442.534-426.538a138.461 138.461 0 0 0 83.304-126.865v-110.924a138.378 138.378 0 0 0-184.79-130.27 470.763 470.763 0 0 0-188.86-121.219 96.81 96.81 0 0 0-97.114-94.346h-82.528c-53.691 0-97.114 43.174-97.114 96.865 0 53.607 43.284 96.865 97.141 96.865h82.474c34.954 0 65.536-18.266 82.64-45.804a415.274 415.274 0 0 1 154.9 97.28z m11.817 211.553v-110.924a83.027 83.027 0 0 1 166.054 0V342.597a83.027 83.027 0 0 1-166.054 0zM498.448-58.81h82.473c23.303 0 41.79 18.488 41.79 41.514 0 23.054-18.57 41.513-41.79 41.513H498.448c-23.303 0-41.79-18.487-41.79-41.513 0-23.054 18.57-41.514 41.79-41.514z"  horiz-adv-x="1051" />

    
    <glyph glyph-name="ziyuan" unicode="&#58881;" d="M236.364489 419.588278a31.99225 31.99225 0 0 0-63.9845 0 406.227174 406.227174 0 0 0 57.040445 211.297651 31.99225 31.99225 0 0 0 54.560427-33.728264 339.514652 339.514652 0 0 1-47.616372-177.569387zM846.201253 449.596512A383.410995 383.410995 0 1 1 461.79825 65.193509 383.410995 383.410995 0 0 1 846.201253 449.596512z m-40.92032-288.922257l193.937515-235.105836a31.99225 31.99225 0 0 0-49.600387-40.672318L759.400575 114.545895a446.403488 446.403488 0 1 0 44.888351 46.12836z"  horiz-adv-x="1024" />

    
    <glyph glyph-name="dizhi" unicode="&#59169;" d="M512-128S128 260.1984 128 486.4s171.9296 409.6 384 409.6S896 712.6016 896 486.4 512-128 512-128z m0 443.6992c88.3712 0 160.0512 76.3904 160.0512 170.7008S600.3712 657.1008 512 657.1008 352.0512 580.7104 352.0512 486.4c0-94.208 71.5776-170.7008 159.9488-170.7008z"  horiz-adv-x="1024" />

    
    <glyph glyph-name="dizhi1" unicode="&#59042;" d="M512-85.333333c-165.077333 0-384 316.202667-384 554.666666 0 211.712 172.288 384 384 384 211.754667 0 384-172.288 384-384 0-238.464-218.922667-554.666667-384-554.666666z m0 896c-188.202667 0-341.333333-153.130667-341.333333-341.333334 0-232.448 209.664-512 341.333333-512 131.669333 0 341.333333 279.552 341.333333 512 0 188.202667-153.130667 341.333333-341.333333 341.333334zM512 298.666667c-94.122667 0-170.666667 76.544-170.666667 170.666666s76.544 170.666667 170.666667 170.666667 170.666667-76.544 170.666667-170.666667-76.544-170.666667-170.666667-170.666666z m0 298.666666c-70.570667 0-128-57.429333-128-128s57.429333-128 128-128 128 57.429333 128 128-57.429333 128-128 128z"  horiz-adv-x="1024" />

    


  </font>
</defs>
</svg>
